<svg viewBox="0 0 82 114" xmlns="http://www.w3.org/2000/svg" xmlns:xlink="http://www.w3.org/1999/xlink" width="82.000000" height="114.000000" fill="none">
	<defs>
		<radialGradient id="paint_radial_0" cx="0" cy="0" r="1" gradientUnits="userSpaceOnUse" gradientTransform="matrix(0,-114.322,109.09,0,29.3979,13.2503)">
			<stop stop-color="rgb(253,217,0)" offset="0" stop-opacity="1" />
			<stop stop-color="rgb(247,143,31)" offset="0.519999981" stop-opacity="1" />
			<stop stop-color="rgb(253,217,0)" offset="1" stop-opacity="1" />
		</radialGradient>
		<linearGradient id="paint_linear_0" x1="10.2719831" x2="66.9528351" y1="42.7648277" y2="49.204689" gradientUnits="userSpaceOnUse">
			<stop stop-color="rgb(241,90,41)" offset="0" stop-opacity="1" />
			<stop stop-color="rgb(247,148,29)" offset="1" stop-opacity="1" />
		</linearGradient>
	</defs>
	<rect id="clubs-travel-logo 1" width="82.000000" height="114.000000" x="0.000000" y="0.000000" fill="rgb(255,255,255)" fill-opacity="0" />
	<path id="Vector" d="M43.761 15.6967C42.3194 17.6545 40.4777 13.4098 39.8792 15.6967C39.7668 16.1229 39.6874 16.5179 39.6147 16.8956L39.5618 16.8159C38.1797 14.9206 37.0224 17.0412 34.9856 15.7764C34.6087 15.5408 38.2094 14.6538 37.7697 14.6884C37.7697 14.6884 34.5459 13.1776 32.7868 10.7071C31.0278 8.23649 31.3585 3.73886 32.271 0.291138L33.8185 0.741593C37.8226 1.90585 42.0383 5.35357 43.4237 8.14293C45.0273 11.3724 43.7544 15.6621 43.7544 15.6621C43.5593 15.8353 43.9098 15.4958 43.761 15.6967Z" fill="rgb(62,119,57)" fill-rule="nonzero" />
	<path id="Vector" d="M33.8119 2.56059C33.9179 2.46162 34.0569 2.41047 34.1987 2.41826C34.3405 2.42604 34.4736 2.49213 34.5691 2.60217L35.5048 3.6902C37.6577 6.20334 39.2842 9.16138 40.2794 12.3736C40.3232 12.5156 40.3114 12.67 40.2466 12.8029C40.1818 12.9358 40.0693 13.0363 39.9338 13.0822C39.7983 13.1282 39.651 13.1158 39.5242 13.0479C39.3974 12.98 39.3015 12.8621 39.2577 12.7201C38.3155 9.65751 36.7687 6.83703 34.7179 4.44211L33.7822 3.35409C33.6865 3.24434 33.636 3.09948 33.6415 2.95094C33.6471 2.80239 33.7083 2.66214 33.8119 2.56059L33.8119 2.56059Z" fill="rgb(57,108,52)" fill-rule="nonzero" />
	<path id="Vector" d="M40.6695 81.7681C59.2337 81.7681 74.2829 65.997 74.2829 46.5424C74.2829 27.0878 59.2337 11.3168 40.6695 11.3168C22.1054 11.3168 7.05615 27.0878 7.05615 46.5424C7.05615 65.997 22.1054 81.7681 40.6695 81.7681Z" fill="url(#paint_radial_0)" fill-rule="nonzero" />
	<path id="Vector" d="M51.1044 80.0427C51.931 79.7585 52.7576 79.4467 53.538 79.1002C45.3005 81.2243 36.6013 80.0059 29.1853 75.6893C21.7693 71.3727 16.185 64.2771 13.5525 55.826C10.9201 47.3748 11.4341 38.1931 14.9916 30.1225C18.5491 22.052 24.8869 15.6895 32.7338 12.3114C31.9005 12.5262 31.0684 12.7746 30.2374 13.0564C21.761 15.9563 14.7311 22.2661 10.694 30.5978C6.65702 38.9295 5.9436 48.6005 8.71074 57.4835C11.4779 66.3664 17.4989 73.7336 25.4493 77.9642C33.3996 82.1949 42.628 82.9425 51.1044 80.0427L51.1044 80.0427Z" fill="rgb(254,187,18)" fill-rule="nonzero" />
	<path id="Vector" d="M60.2994 61.3312C60.838 61.2338 61.3903 61.2574 61.9196 61.4005C62.4281 61.5438 62.9092 61.7782 63.3413 62.0935C63.7748 62.4123 64.1453 62.8159 64.4325 63.282C64.7309 63.7689 64.9302 64.315 65.0177 64.8864C65.1011 65.4572 65.0747 66.0396 64.9401 66.5996C64.8056 67.1596 64.5655 67.6857 64.2341 68.147C59.3053 73.8782 53.2765 77.3605 46.1478 78.5941C37.6943 80.0563 29.9969 78.1806 23.0555 72.9668C16.1142 67.7531 11.947 60.7168 10.5538 51.8578C9.16513 43.0242 10.9572 34.9715 15.9301 27.6995C20.903 20.4275 27.6151 16.0454 36.0664 14.5531C43.2965 13.3034 50.2191 14.6698 56.8343 18.6522C57.2575 18.9706 57.6124 19.3784 57.876 19.8493C58.1397 20.3201 58.3063 20.8437 58.3651 21.3862C58.4615 21.9607 58.448 22.5496 58.3255 23.1187C58.1989 23.6555 57.9744 24.1614 57.6642 24.6087C57.3536 25.0599 56.9602 25.4417 56.5069 25.7313C56.0426 26.0351 55.5258 26.2399 54.9859 26.3343C53.9429 26.4926 52.8811 26.2354 52.0101 25.6135C49.8381 24.353 47.4799 23.4828 45.0335 23.039C42.5092 22.5867 39.9299 22.5867 37.4055 23.039C31.1938 24.1132 26.2485 27.3391 22.5695 32.7169C18.9346 38.0299 17.6297 43.9425 18.6547 50.4544C19.6796 56.9664 22.7304 62.1397 27.8069 65.9744C32.9055 69.8067 38.5749 71.1835 44.8153 70.1047C49.9409 69.2896 54.6259 66.6003 58.0411 62.5128C58.6654 61.8929 59.4515 61.4816 60.2994 61.3312L60.2994 61.3312Z" fill="url(#paint_linear_0)" fill-rule="nonzero" />
	<path id="Vector" d="M53.6769 54.3632C53.9977 54.2596 54.3363 54.2312 54.6688 54.28C54.9829 54.3233 55.2874 54.4242 55.5682 54.578C55.8503 54.7337 56.0999 54.9469 56.3022 55.2052C56.517 55.4733 56.6748 55.7863 56.7651 56.1234C56.8558 56.458 56.8814 56.8084 56.8406 57.1536C56.7997 57.4988 56.693 57.8319 56.527 58.1331C54.1112 61.8381 50.5358 64.5419 46.4192 65.777C44.0641 66.5033 41.5954 66.7354 39.1545 66.4601C36.7137 66.1848 34.3486 65.4076 32.1949 64.1728C30.0411 62.9381 28.1411 61.2701 26.6034 59.2645C25.0658 57.259 23.921 54.9552 23.2344 52.4851C21.8468 47.501 22.403 42.1436 24.781 37.5889C27.159 33.0343 31.1644 29.6545 35.9179 28.1917C40.159 26.8888 44.4012 27.1764 48.6445 29.0545C48.92 29.2137 49.1606 29.4316 49.3508 29.6942C49.541 29.9568 49.6766 30.2582 49.7488 30.5791C49.849 30.9149 49.8828 31.2686 49.848 31.6186C49.8108 31.9488 49.7143 32.2686 49.5636 32.5611C49.4083 32.855 49.1993 33.114 48.9486 33.3234C48.6874 33.5395 48.3887 33.7007 48.0691 33.7981C47.4557 33.973 46.8019 33.9 46.2374 33.5937C44.8441 32.9988 43.3654 32.6533 41.8629 32.5715C40.3191 32.494 38.7739 32.692 37.2934 33.1571C35.561 33.686 33.9452 34.5679 32.5386 35.7523C31.132 36.9367 29.9623 38.4004 29.0964 40.0594C28.2305 41.7184 27.6856 43.5402 27.4927 45.4203C27.2998 47.3004 27.4629 49.202 27.9725 51.0159C28.7005 53.6191 30.1155 55.9538 32.0544 57.751C33.9933 59.5481 36.3773 60.7347 38.9316 61.174C41.486 61.6132 44.1068 61.2873 46.4921 60.2338C48.8774 59.1802 50.9301 57.4419 52.4138 55.219C52.7462 54.8108 53.1852 54.5133 53.6769 54.3632L53.6769 54.3632Z" fill="rgb(255,255,255)" fill-rule="nonzero" />
	<path id="Vector" d="M1.37216 89.2249C5.21756 84.6441 16.9786 86.3523 23.1551 82.125C24.4776 81.2275 25.0331 80.1672 24.7752 82.9705C24.2561 87.7245 18.4434 89.6268 14.631 89.7342C13.4242 92.2291 9.67135 110.822 12.7926 111.872C13.2059 112.087 13.6391 111.983 13.7052 112.285C13.7581 113.612 8.80175 115.403 7.78337 110.168C7.16837 106.46 7.45272 92.1494 11.3874 90.3371C8.11071 90.3787 5.10514 90.7668 4.03385 92.4162C3.19401 93.8334 4.59925 96.1688 6.63603 95.8812C7.77675 95.6664 8.49425 95.1882 8.4149 95.6664C8.3124 96.4252 5.76974 99.4086 3.0353 98.0088C-0.0562312 96.5916 -1.04155 92.1702 1.37216 89.2249Z" fill="rgb(37,82,150)" fill-rule="nonzero" />
	<path id="Vector" d="M21.4623 107.638C18.8171 107.524 18.6253 104.475 18.794 102.233C18.8877 101.136 19.04 100.045 19.2502 98.9653C18.7091 99.2281 18.1395 99.4212 17.554 99.5405C16.6382 99.6687 15.7223 99.3846 15.4082 98.3762C15.2164 97.659 15.1007 96.0616 15.5602 95.2577C16.1124 94.1974 17.5441 94.9632 17.6334 95.5453C17.9343 97.1635 15.5338 99.09 19.9479 94.627C20.3255 94.2074 20.8041 93.9021 21.3333 93.7435C21.7645 93.6727 22.2058 93.7621 22.5807 93.9962C22.9557 94.2303 23.2407 94.5944 23.3866 95.0255C23.7602 96.4323 22.5203 101.235 22.5104 102.957C24.3885 101.287 29.7416 95.2854 30.7964 94.5473C33.4184 94.2771 25.0994 107.704 21.4623 107.638Z" fill="rgb(37,82,150)" fill-rule="nonzero" />
	<path id="Vector" d="M43.9492 99.8556C43.0135 101.394 41.8232 103.154 40.074 103.899C38.8672 104.357 37.7033 103.782 37.0024 102.68C36.3052 103.457 35.4229 104.025 34.4465 104.326C33.7699 104.459 33.0701 104.353 32.4572 104.025C31.8443 103.696 31.353 103.163 31.0607 102.51C29.7381 99.3913 31.636 90.7911 36.5891 91.7128C36.8297 91.761 37.0632 91.8426 37.2834 91.9553C37.4261 91.1631 37.6872 90.3995 38.0571 89.6927C39.1119 88.1576 41.4066 89.6926 41.6578 91.2346C41.6578 91.5499 41.6578 91.8375 41.6578 92.1598C41.3867 94.4917 40.5436 96.7094 40.3055 99.3185C40.3055 99.3463 40.3055 99.3844 40.3055 99.4156C42.4249 97.4613 43.9062 94.8313 45.8736 92.4681C46.9283 91.1896 47.8574 90.2228 48.2178 90.4272C49.3156 91.4771 44.5576 98.9097 43.9492 99.8556ZM36.5163 94.7932C36.8767 93.6844 37.085 92.7142 36.6254 92.8216C34.4498 93.577 33.6496 96.9623 33.6496 99.1626C33.6339 99.5595 33.6808 99.9564 33.7885 100.337L33.8182 100.337C35.0152 98.8265 35.8716 96.7995 36.5163 94.7932Z" fill="rgb(37,82,150)" fill-rule="nonzero" />
	<path id="Vector" d="M59.6184 86.0926C59.1654 89.1071 57.37 98.0955 53.6965 99.7622C51.6201 100.559 50.119 98.4697 49.8974 97.8876C49.3849 96.5466 48.2211 91.058 48.6377 88.4349C48.8427 87.1737 50.6215 85.4931 51.4415 88.4349C51.9044 90.365 52.1789 93.6325 52.8633 95.4863C53.0584 95.119 53.2336 94.821 53.432 94.4849C55.0853 91.6886 56.2921 88.6186 58.19 85.4099C59.6713 82.922 59.9722 83.5839 59.6184 86.0926Z" fill="rgb(37,82,150)" fill-rule="nonzero" />
	<path id="Vector" d="M73.7602 90.9471C72.2954 92.8355 70.6951 94.5368 68.8534 95.6907C65.623 97.4232 62.3992 96.3491 61.9528 91.7717C61.6949 87.7523 63.5267 84.2422 66.3835 82.87C69.1675 81.7092 72.6657 82.1562 71.244 86.4945C70.1165 88.9373 68.1458 90.3476 65.4874 90.306C65.5099 90.6297 65.5907 90.9459 65.7255 91.2381C67.2994 94.3289 74.2462 86.5949 76.4516 83.5353C76.5165 83.4394 76.6088 83.3675 76.7152 83.3301C76.8216 83.2928 76.9365 83.2918 77.0435 83.3274C77.8899 84.5125 74.4479 89.9491 73.7602 90.9471ZM65.5403 89.5818C66.162 88.9512 67.4647 87.8493 67.8945 87.3157C71.773 82.5998 65.9041 85.8915 65.5403 89.5818L65.5403 89.5818Z" fill="rgb(37,82,150)" fill-rule="nonzero" />
	<path id="Vector" d="M80.7171 94.9805C80.7171 95.2958 80.7568 95.5765 80.684 95.6735C79.8905 96.0581 78.8027 95.0186 78.0852 93.9826C76.8882 92.2986 76.7031 90.2403 76.9048 88.1474C77.4107 82.3781 78.7365 76.5984 79.2193 70.649C79.2953 69.7688 80.1054 70.5277 80.3666 70.8777C81.2594 72.1563 81.666 75.0565 81.7189 75.7287C82.2877 81.997 79.9864 87.6346 80.7171 94.9805Z" fill="rgb(37,82,150)" fill-rule="nonzero" />
</svg>
