<svg width="14" height="11" viewBox="0 0 14 11" fill="none" xmlns="http://www.w3.org/2000/svg">
<path opacity="0.7" d="M12 2.66075L6.66667 5.9867L1.33333 2.66075V1.33038L6.66667 4.65632L12 1.33038V2.66075ZM12 0H1.33333C0.593333 0 0 0.592018 0 1.33038V9.31264C0 9.66548 0.140476 10.0039 0.390524 10.2534C0.640573 10.5029 0.979711 10.643 1.33333 10.643H12C12.3536 10.643 12.6928 10.5029 12.9428 10.2534C13.1929 10.0039 13.3333 9.66548 13.3333 9.31264V1.33038C13.3333 0.977539 13.1929 0.639152 12.9428 0.389658C12.6928 0.140164 12.3536 0 12 0Z" fill="#999999"/>
</svg>
